# xmcd
#
# Track frame offsets: 
#        150
#        22862
#        37958
#        55607
#        75116
#        91226
#        110630
#        125309
#        146333
#        161435
#        182567
#
# Disc length: 2637 seconds
#
# Revision: 0
# Processed by: cddbd v1.5.2PL0 Copyright (c) Steve Scherf et al.
# Submitted via: ExactAudioCopy v0.95a3
#
DISCID=720a4b0b
DTITLE=H.P. Lange and Troels Jensen - Alongside The Blues
DYEAR=2004
DGENRE=Blues
TTITLE0=I am the blues
TTITLE1=Time to tell
TTITLE2=Keep it clean
TTITLE3=From four untill late
TTITLE4=Some of these days
TTITLE5=Motherless children
TTITLE6=Rest your saddle
TTITLE7=She's gone
TTITLE8=Little queen of spades
TTITLE9=Early in the evening
TTITLE10=Lonesome whistle blow
EXTD=
EXTT0=
EXTT1=
EXTT2=
EXTT3=
EXTT4=
EXTT5=
EXTT6=
EXTT7=
EXTT8=
EXTT9=
EXTT10=
PLAYORDER=
